<svg xmlns="http://www.w3.org/2000/svg" viewBox="0 0 1200 500"><defs><linearGradient id="sky" x2="0" y2="1"><stop stop-color="#142c56"/><stop offset=".7" stop-color="#506b91"/><stop offset="1" stop-color="#bab9ba"/></linearGradient><linearGradient id="mist" x2="0" y2="1"><stop stop-color="#c7d4de" stop-opacity="0"/><stop offset="1" stop-color="#d6d9dd" stop-opacity=".5"/></linearGradient><radialGradient id="glow"><stop stop-color="#fff4c6" stop-opacity=".6"/><stop offset="1" stop-color="#efdfad" stop-opacity="0"/></radialGradient></defs><path fill="url(#sky)" d="M0 0h1200v500H0z"/><circle cx="845" cy="160" r="190" fill="url(#glow)"/><g fill="#d6dbe1" opacity=".25"><path d="M510 275 720 65 840 250 980 90l220 210v200H510Z"/><path d="M300 370 580 165 780 385 1050 205l150 140v155H300Z"/></g><g fill="#233955"><path d="M605 455 645 355 678 361 712 253 750 365 790 373 822 327 859 351 900 252 920 334 960 351 994 405 1080 376l120 100v24H605Z"/><path d="M843 345V220h18v-34h10v-39l15-42 14 42v39h11v34h19v144Z"/><path d="M800 369V285h15v-30l13-28 13 28v30h13v97M924 359V263h14v-33l13-33 13 33v33h16v134"/></g><g fill="#d8cf9b" opacity=".65"><path d="M878 235h8v17h-8zm22 31h7v17h-7zm-30 20h7v17h-7z"/></g><g transform="translate(1040 120) rotate(-12)"><path d="M-88 0q88-59 176 0Q0 36-88 0" fill="#bcb5a1" stroke="#e8dfbc" stroke-width="1.5"/><path d="M-85 0H86M0-26V15M-46-19-28 15M44-19 28 15" stroke="#5d6675" fill="none"/><path d="m-28 22 56 0-10 12h-32zM-30 9l8 15m51-15-8 15" fill="#243750" stroke="#c6bea7"/></g><path fill="url(#mist)" d="M0 340h1200v160H0z"/><g fill="#f5e4ba" opacity=".6"><circle cx="700" cy="56" r="1.5"/><circle cx="967" cy="41" r="1"/><circle cx="1150" cy="223" r="1.5"/><circle cx="591" cy="100" r="1"/></g></svg>
